<?xml version="1.0" standalone="no"?>
<!DOCTYPE svg PUBLIC "-//W3C//DTD SVG 20010904//EN"
 "http://www.w3.org/TR/2001/REC-SVG-20010904/DTD/svg10.dtd">
<svg version="1.0" xmlns="http://www.w3.org/2000/svg"
 width="700.000000pt" height="700.000000pt" viewBox="0 0 700.000000 700.000000"
 preserveAspectRatio="xMidYMid meet">
<metadata>
Created by potrace 1.14, written by Peter Selinger 2001-2017
</metadata>
<g transform="translate(0.000000,700.000000) scale(0.100000,-0.100000)"
fill="#000000" stroke="none">
<path d="M5352 6573 c-26 -11 -72 -47 -113 -88 l-70 -69 580 -580 581 -581 74
74 c101 100 123 179 76 272 -24 46 -914 940 -961 965 -47 24 -117 27 -167 7z"/>
<path d="M3320 4570 c-1490 -1493 -1656 -1663 -1671 -1706 -9 -26 -15 -60 -13
-74 10 -59 17 -84 28 -98 44 -57 928 -933 956 -947 48 -25 126 -28 173 -7 27
12 545 523 1693 1671 910 910 1654 1658 1654 1661 0 9 -1146 1154 -1157 1156
-4 1 -753 -745 -1663 -1656z"/>
<path d="M1280 2478 c-71 -36 -93 -80 -150 -293 -28 -104 -58 -215 -66 -245
-8 -30 -17 -63 -19 -73 -2 -9 -15 -59 -29 -110 -173 -626 -175 -637 -118 -719
38 -56 104 -91 166 -90 24 1 146 29 272 63 126 34 285 76 354 95 441 116 586
157 621 175 92 46 132 176 83 271 -25 48 -898 917 -939 934 -51 21 -124 18
-175 -8z"/>
</g>
</svg>
